<?xml version="1.0" encoding="UTF-8" standalone="no"?>
<!-- Created with Inkscape (http://www.inkscape.org/) -->

<svg
   xmlns:dc="http://purl.org/dc/elements/1.1/"
   xmlns:cc="http://creativecommons.org/ns#"
   xmlns:rdf="http://www.w3.org/1999/02/22-rdf-syntax-ns#"
   xmlns:svg="http://www.w3.org/2000/svg"
   xmlns="http://www.w3.org/2000/svg"
   xmlns:sodipodi="http://sodipodi.sourceforge.net/DTD/sodipodi-0.dtd"
   xmlns:inkscape="http://www.inkscape.org/namespaces/inkscape"
   width="210mm"
   height="297mm"
   viewBox="0 0 744.09448819 1052.3622047"
   id="svg2"
   version="1.1"
   inkscape:version="0.91 r13725"
   sodipodi:docname="stream_p.svg">
  <sodipodi:namedview
     id="base"
     pagecolor="#ffffff"
     bordercolor="#666666"
     borderopacity="1.0"
     inkscape:pageopacity="0.0"
     inkscape:pageshadow="2"
     inkscape:zoom="0.7"
     inkscape:cx="406.78375"
     inkscape:cy="574.65269"
     inkscape:document-units="px"
     inkscape:current-layer="layer1"
     showgrid="false"
     inkscape:window-width="1920"
     inkscape:window-height="1137"
     inkscape:window-x="-8"
     inkscape:window-y="-8"
     inkscape:window-maximized="1" />
  <defs
     id="defs4" />
  <metadata
     id="metadata7">
    <rdf:RDF>
      <cc:Work
         rdf:about="">
        <dc:format>image/svg+xml</dc:format>
        <dc:type
           rdf:resource="http://purl.org/dc/dcmitype/StillImage" />
        <dc:title />
      </cc:Work>
    </rdf:RDF>
  </metadata>
  <g
     id="layer1"
     inkscape:groupmode="layer"
     inkscape:label="Layer 1">
    <ellipse
       ry="27.857"
       rx="27.143"
       cy="284.50522"
       cx="455.814"
       id="path4151"
       style="fill:#3cb46f;fill-opacity:1;fill-rule:nonzero" />
    <ellipse
       ry="27.857143"
       rx="27.142857"
       cy="434.50507"
       cx="634.28571"
       id="path4155"
       style="fill:#3cb46f;fill-opacity:1;fill-rule:nonzero" />
    <ellipse
       ry="27.857"
       rx="27.143"
       cy="623.0766"
       cx="480.00012"
       id="path4163"
       style="fill:#3cb46f;fill-opacity:1;fill-rule:nonzero" />
    <ellipse
       ry="27.857"
       rx="27.143"
       cy="900.21954"
       cx="598.57159"
       id="path4167"
       style="fill:#3cb46f;fill-opacity:1;fill-rule:nonzero" />
    <path
       id="path4175"
       style="fill:none;fill-rule:evenodd;stroke:#3cb46f;stroke-width:1.81599998;stroke-linecap:butt;stroke-linejoin:miter;stroke-opacity:1;fill-opacity:1;stroke-miterlimit:4;stroke-dasharray:7.26399994,7.26399994;stroke-dashoffset:0"
       d="m 564.25773,800.90202 c 38.41839,34.91231 38.64434,70.03136 38.64434,70.03136 M 490,653.79078 c -30,147.14285 75.71428,148.57142 75.71428,148.57142 m 32.85715,121.42857 c 42.85715,32.85717 25.71428,48.57142 25.71428,48.57142 -102.85714,81.42861 -161.42857,45.71431 -161.42857,45.71431 m -8.57142,-532.85715 c -105.71429,-42.85715 -130,5.71427 -130,5.71427 -55.71429,51.42858 71.42856,98.57145 71.42856,98.57145 45.71429,-21.42858 65.71429,14.28571 65.71429,14.28571 M 627.14286,459.50507 c -28.57144,55.71428 -82.85716,24.28569 -82.85716,24.28569 -12.85714,-38.57142 -89.99999,4.28574 -89.99999,4.28574 M 460,312.36221 c -88.57143,105.71428 5.71429,75.71428 5.71429,75.71428 130,-40 168.57142,20 168.57142,20 M 87.142857,125.21935 c -9.986401,239.61905 129.661653,166.3064 147.142863,135.71428 110.93224,-74.48569 225.86411,18.01733 221.42857,14.28572" />
  </g>
</svg>
